<svg data-v-423bf9ae="" xmlns="http://www.w3.org/2000/svg" viewBox="0 0 295.6669995120669 60" class="font"><!----><!----><defs data-v-423bf9ae=""><linearGradient data-v-423bf9ae="" gradientTransform="rotate(25)" id="3c63c353-a3b3-480d-8a09-4acda69991c8" x1="0%" y1="0%" x2="100%" y2="0%"><stop data-v-423bf9ae="" offset="0%" style="stop-color: rgb(120, 49, 146); stop-opacity: 1;"></stop><stop data-v-423bf9ae="" offset="100%" style="stop-color: rgb(89, 188, 200); stop-opacity: 1;"></stop></linearGradient></defs><g data-v-423bf9ae="" id="42cdfb0e-2a2c-4b37-b039-6d829d93956c" fill="url(#3c63c353-a3b3-480d-8a09-4acda69991c8)" transform="matrix(6.0180540013045345,0,0,6.0180540013045345,-7.22166755871919,-23.77131287686035)"><path d="M2.56 13.75L1.20 13.75L1.20 3.95L2.59 3.95L5.80 10.40Q5.99 10.77 6.09 11.00L6.09 11.00Q6.06 10.47 6.06 10.40L6.06 10.40L6.06 3.95L7.42 3.95L7.42 13.75L6.09 13.75L2.84 7.32Q2.81 7.27 2.75 7.14Q2.69 7.01 2.63 6.90Q2.58 6.79 2.53 6.71L2.53 6.71Q2.56 6.93 2.56 7.31L2.56 7.31L2.56 13.75ZM16.13 9.84L16.13 9.84Q16.13 10.37 16.09 10.72L16.09 10.72L11.16 10.72Q11.31 11.62 11.81 12.14Q12.31 12.66 13.10 12.66L13.10 12.66Q14.04 12.66 14.73 12.01L14.73 12.01L15.55 12.91Q14.55 13.92 13.09 13.92L13.09 13.92Q11.54 13.92 10.64 12.87Q9.74 11.83 9.74 10.16L9.74 10.16Q9.74 8.41 10.65 7.42Q11.55 6.43 13.09 6.43L13.09 6.43Q14.42 6.43 15.27 7.29Q16.13 8.16 16.13 9.84ZM11.13 9.51L11.13 9.51L14.74 9.51Q14.70 8.55 14.22 8.11Q13.75 7.66 13.09 7.66L13.09 7.66Q12.22 7.66 11.73 8.14Q11.24 8.62 11.13 9.51ZM19.73 13.75L18.14 13.75L20.76 10.05L18.31 6.59L19.91 6.59L21.18 8.40Q21.41 8.69 21.56 8.97L21.56 8.97Q21.67 8.76 21.92 8.40L21.92 8.40L23.21 6.59L24.81 6.59L22.36 10.05L24.98 13.75L23.39 13.75L21.92 11.69Q21.67 11.33 21.56 11.12L21.56 11.12Q21.41 11.40 21.18 11.69L21.18 11.69L19.73 13.75ZM32.66 12.91Q31.74 13.92 30.18 13.92Q28.63 13.92 27.71 12.92Q26.80 11.91 26.80 10.18Q26.80 8.44 27.71 7.43Q28.63 6.43 30.18 6.43Q31.74 6.43 32.66 7.43Q33.57 8.44 33.57 10.16L33.57 10.16Q33.57 11.90 32.66 12.91ZM28.73 11.95Q29.25 12.60 30.18 12.60Q31.12 12.60 31.64 11.94Q32.16 11.28 32.16 10.16Q32.16 9.04 31.65 8.39Q31.14 7.74 30.18 7.74Q29.23 7.74 28.73 8.38Q28.22 9.02 28.22 10.18L28.22 10.18Q28.22 11.30 28.73 11.95ZM40.61 6.43L40.61 6.43Q41.61 6.43 42.24 6.79L42.24 6.79L42.24 9.35L40.87 9.35L40.87 7.77Q40.77 7.76 40.57 7.76L40.57 7.76Q39.49 7.76 38.82 8.29Q38.14 8.82 38.14 9.81L38.14 9.81L38.14 12.50L40.18 12.50L40.18 13.75L35.21 13.75L35.21 12.50L36.71 12.50L36.71 7.83L35.21 7.83L35.21 6.59L38.04 6.59L38.04 7.77Q38.37 7.15 39.09 6.79Q39.82 6.43 40.61 6.43ZM46.93 13.92L46.93 13.92Q45.77 13.92 45.04 13.29Q44.31 12.67 44.31 11.52L44.31 11.52Q44.31 10.36 45.13 9.76Q45.95 9.16 47.11 9.16L47.11 9.16Q48.17 9.16 48.97 9.58L48.97 9.58L48.97 9.09Q48.97 7.64 47.52 7.64L47.52 7.64Q46.41 7.64 45.23 8.39L45.23 8.39L44.81 7.24Q46.09 6.43 47.64 6.43L47.64 6.43Q50.33 6.43 50.33 9.04L50.33 9.04L50.33 13.75L48.97 13.75L48.97 13.13Q48.16 13.92 46.93 13.92ZM47.15 12.68L47.15 12.68Q48.19 12.68 48.97 11.84L48.97 11.84L48.97 10.77Q48.23 10.35 47.32 10.35L47.32 10.35Q46.61 10.35 46.13 10.65Q45.65 10.95 45.65 11.52L45.65 11.52Q45.65 12.05 46.05 12.37Q46.45 12.68 47.15 12.68Z"></path></g><!----><!----></svg>